<?xml version="1.0" encoding="utf-8"?>
<!-- Generator: Adobe Illustrator 16.0.0, SVG Export Plug-In . SVG Version: 6.00 Build 0)  -->
<!DOCTYPE svg PUBLIC "-//W3C//DTD SVG 1.1//EN" "http://www.w3.org/Graphics/SVG/1.1/DTD/svg11.dtd">
<svg version="1.1" id="Layer_1" xmlns="http://www.w3.org/2000/svg" xmlns:xlink="http://www.w3.org/1999/xlink" x="0px" y="0px"
	 width="93px" height="58.75px" viewBox="0 0 93 58.75" enable-background="new 0 0 93 58.75" xml:space="preserve">
<g>
	<g>
		<path fill="#B7852B" d="M0,36.777V58.75h26.299C16.798,52.088,10.021,42.404,0,36.777"/>
		<path fill="#CB912A" d="M0,23.108v13.669c10.021,5.63,16.799,15.312,26.299,21.974h21.729
			c-9.181-8.478-19.237-15.985-29.262-23.465C12.798,30.833,6.667,26.31,0,23.108"/>
		<path fill="#E3A224" d="M0,23.108c6.668,3.202,12.799,7.725,18.766,12.176c10.025,7.479,20.081,14.989,29.262,23.467h14.97
			c-0.23-0.219-0.459-0.437-0.685-0.649c-4.19-4.05-8.504-7.972-12.931-11.759c-11.6-9.928-23.978-18.945-36.989-26.935
			C8.416,16.964,4.286,14.599,0,12.716V23.108z"/>
		<path fill="#E6AC2F" d="M0,12.717c4.286,1.882,8.416,4.248,12.393,6.69c13.011,7.988,25.389,17.007,36.989,26.935
			c4.427,3.789,8.738,7.709,12.931,11.758c0.226,0.215,0.453,0.433,0.687,0.65h12.729c-1.959-1.758-3.951-3.477-5.985-5.146
			c-4.168-3.416-8.63-6.401-12.482-10.151c-7.096-6.902-10.957-16.53-18.654-22.886c-4-3.303-8.793-5.474-13.522-7.605
			C18.521,10.003,11.96,7.046,5.398,4.089C3.611,3.283,1.813,2.482,0,1.723V12.717z"/>
		<path fill="#E9B445" d="M0,1.724c1.814,0.758,3.612,1.561,5.399,2.365c6.562,2.956,13.122,5.913,19.683,8.87
			c4.731,2.133,9.524,4.303,13.524,7.607c7.697,6.353,11.558,15.982,18.653,22.885c3.854,3.75,8.314,6.736,12.482,10.154
			c2.035,1.668,4.027,3.387,5.986,5.145H93v-5.971c-6.928-5.258-14.604-9.52-22.289-13.629
			c-8.297-4.438-12.819-14.041-18.291-21.692C47.357,10.375,41.462,3.189,33.468,0H0V1.724z"/>
		<path fill="#E9B445" d="M93,29.943c-2.842-0.341-5.771-0.304-8.641-0.277c-5.051,0.047-10.35-0.082-14.75-2.56
			c-5.309-2.986-8.268-8.75-11.715-13.766C54.335,8.165,49.839,3.484,44.634,0H33.466c7.996,3.188,13.891,10.375,18.956,17.457
			c5.47,7.651,9.992,17.254,18.289,21.693C78.395,43.262,86.072,47.521,93,52.779V29.943z"/>
		<path fill="#E9BA5A" d="M93,18.263c-3.66,1.168-7.256,2.65-11.069,2.611c-6.785-0.07-12.546-4.925-16.945-10.085
			C61.916,7.188,59.094,3.25,55.703,0H44.634c5.208,3.484,9.702,8.164,13.26,13.341c3.447,5.015,6.406,10.779,11.715,13.766
			c4.4,2.477,9.699,2.605,14.75,2.56c2.869-0.026,5.799-0.063,8.641,0.278V18.263z"/>
		<path fill="#ECC36F" d="M93,6.144c-4.824,2.343-10.117,3.633-15.131,2.067C73.361,6.803,69.936,3.365,66.533,0h-10.83
			c3.392,3.25,6.213,7.188,9.283,10.79c4.398,5.161,10.158,10.015,16.943,10.085c3.814,0.04,7.41-1.443,11.07-2.611V6.144L93,6.144z
			"/>
		<path fill="#EEC882" d="M93,0H66.533c3.402,3.364,6.828,6.803,11.338,8.211C82.882,9.776,88.175,8.486,93,6.144V0z"/>
	</g>
	<g>
		<g id="Group_2143" transform="translate(-3877.944 -786.625)">
			<rect id="Rectangle_2089" x="3884.159" y="791.625" fill="#FFFFFF" width="12.147" height="17.683"/>
			<path id="Path_1154" fill="#0047BA" d="M3893.532,800.618c-0.141,0.586-0.445,1.119-0.877,1.538h2.357
				c0.446-2.37-1.163-4.904-3.796-5.451C3891.755,796.848,3894.064,797.901,3893.532,800.618"/>
			<path id="Path_1155" fill="#0047BA" d="M3885.374,792.804v9.352h1.026c0.37,0.018,0.741,0.005,1.108-0.039
				c1.47-0.208,2.815-1.369,2.958-2.395c0.218-1.213-0.464-2.278-1.771-2.542c-0.026-0.005-0.051-0.012-0.076-0.021
				c-0.395,0.004-0.79-0.036-1.176-0.122c-0.178,0.155-0.244,0.401-0.168,0.625c-0.386-0.422-0.48-1.036-0.238-1.555
				c0.216-0.355,0.521-0.649,0.885-0.85c0.006-0.006,0.012-0.012,0.017-0.018c0.359-0.372,0.788-0.669,1.261-0.877
				c0.478-0.211,0.988-0.345,1.508-0.397c1.679-0.15,3.323,0.548,4.382,1.86v-3.021H3885.374z"/>
			<path id="Path_1156" fill="#0047BA" d="M3892.397,795.075c1.003,0.134,1.942,0.569,2.694,1.247v0.834
				c-0.974-1.209-2.456-1.896-4.008-1.856c0.025,0.094,0.028,0.192,0.008,0.288c-0.102,0.375-0.485,0.6-0.863,0.506
				c-0.279-0.049-0.506-0.256-0.58-0.53c-0.233,0.079-0.46,0.176-0.677,0.291C3889.977,795.177,3891.198,794.9,3892.397,795.075"/>
			<path id="Path_1157" fill="#0047BA" d="M3886.1,806.219h0.382l0.719,1.862h-0.43l-0.153-0.43h-0.671l-0.153,0.43h-0.414
				L3886.1,806.219z M3886.514,807.33l-0.234-0.668l-0.23,0.668H3886.514z"/>
			<path id="Path_1158" fill="#0047BA" d="M3887.436,806.219h0.717c0.251-0.016,0.498,0.068,0.687,0.232
				c0.176,0.184,0.266,0.434,0.247,0.688c0.002,0.139-0.021,0.277-0.068,0.408c-0.043,0.112-0.111,0.212-0.198,0.294
				c-0.09,0.083-0.198,0.143-0.314,0.18c-0.136,0.043-0.277,0.063-0.419,0.061h-0.65L3887.436,806.219L3887.436,806.219z
				 M3888.093,807.75c0.091,0.002,0.182-0.012,0.268-0.042c0.069-0.025,0.13-0.068,0.178-0.124c0.047-0.056,0.082-0.122,0.101-0.192
				c0.022-0.081,0.033-0.164,0.032-0.249c0.001-0.083-0.008-0.166-0.027-0.246c-0.018-0.068-0.049-0.132-0.091-0.188
				c-0.043-0.05-0.098-0.091-0.159-0.116c-0.077-0.031-0.159-0.045-0.241-0.042h-0.317v1.199H3888.093z"/>
			<path id="Path_1159" fill="#0047BA" d="M3889.402,806.219h0.36l0.791,1.22v-1.22h0.389v1.863h-0.356l-0.793-1.211v1.211h-0.39
				V806.219z"/>
			<path id="Path_1160" fill="#0047BA" d="M3892.193,808.127c-0.132,0.002-0.262-0.021-0.384-0.068
				c-0.111-0.042-0.208-0.109-0.288-0.196c-0.081-0.089-0.144-0.193-0.182-0.307c-0.083-0.265-0.083-0.548,0-0.814
				c0.039-0.114,0.101-0.219,0.183-0.307c0.081-0.086,0.179-0.153,0.289-0.197c0.248-0.09,0.519-0.09,0.766,0
				c0.109,0.043,0.207,0.11,0.285,0.197c0.081,0.089,0.143,0.193,0.181,0.307c0.043,0.132,0.064,0.269,0.063,0.407
				c0.001,0.139-0.019,0.276-0.061,0.407c-0.037,0.114-0.099,0.218-0.179,0.307c-0.079,0.086-0.177,0.154-0.286,0.196
				C3892.457,808.106,3892.325,808.129,3892.193,808.127 M3892.19,807.792c0.145,0.011,0.286-0.052,0.376-0.167
				c0.166-0.296,0.166-0.656,0-0.953c-0.184-0.208-0.501-0.226-0.709-0.041c-0.015,0.013-0.029,0.027-0.042,0.041
				c-0.166,0.297-0.166,0.657,0,0.953c0.09,0.115,0.231,0.178,0.376,0.167"/>
			<path id="Path_1161" fill="#0047BA" d="M3895.057,807.437c-0.008,0.095-0.031,0.188-0.07,0.276
				c-0.038,0.082-0.091,0.157-0.159,0.217c-0.072,0.065-0.157,0.115-0.248,0.145c-0.109,0.037-0.225,0.055-0.34,0.053
				c-0.131,0.003-0.262-0.021-0.383-0.07c-0.106-0.043-0.201-0.111-0.277-0.197c-0.077-0.091-0.134-0.196-0.167-0.31
				c-0.04-0.129-0.059-0.264-0.057-0.4c-0.001-0.138,0.019-0.275,0.062-0.407c0.037-0.113,0.097-0.218,0.176-0.307
				c0.078-0.085,0.173-0.152,0.28-0.196c0.118-0.046,0.244-0.069,0.371-0.066c0.108-0.003,0.215,0.011,0.318,0.044
				c0.084,0.026,0.162,0.07,0.228,0.128c0.063,0.056,0.114,0.124,0.149,0.2c0.04,0.084,0.068,0.173,0.084,0.262l-0.397,0.051
				c-0.013-0.095-0.053-0.185-0.114-0.258c-0.072-0.068-0.169-0.102-0.268-0.093c-0.139-0.009-0.272,0.054-0.353,0.167
				c-0.087,0.143-0.128,0.308-0.118,0.476c-0.012,0.169,0.033,0.337,0.126,0.478c0.08,0.108,0.208,0.17,0.343,0.166
				c0.1,0.009,0.199-0.024,0.273-0.091c0.063-0.075,0.101-0.167,0.107-0.265h0.431L3895.057,807.437z"/>
			<path id="Path_1162" fill="#0047BA" d="M3887.436,805.028v-1.651h0.399v1.992h-1.669c-0.211,0.017-0.421-0.043-0.591-0.167
				c-0.137-0.133-0.208-0.32-0.192-0.51c-0.003-0.117,0.024-0.232,0.079-0.335c0.056-0.098,0.138-0.177,0.237-0.228
				c0.117-0.059,0.245-0.093,0.375-0.096l0.046,0.332c-0.099-0.001-0.196,0.031-0.276,0.09c-0.06,0.063-0.09,0.149-0.083,0.236
				c-0.008,0.094,0.025,0.188,0.092,0.257c0.087,0.06,0.191,0.088,0.296,0.08H3887.436z M3887.064,804.183v0.131h-0.511v-0.131
				h0.063v-0.083c-0.004-0.058,0.017-0.114,0.056-0.156c0.094-0.068,0.22-0.072,0.318-0.011c0.039,0.04,0.061,0.092,0.063,0.147
				l-0.129,0.016c-0.001-0.024-0.009-0.046-0.021-0.065c-0.017-0.014-0.038-0.02-0.059-0.018c-0.06,0-0.088,0.032-0.088,0.096v0.073
				H3887.064z"/>
			<path id="Path_1163" fill="#0047BA" d="M3891.656,803.982v1.046h-2.197v-0.396c0.014-0.177-0.043-0.353-0.158-0.488
				c-0.132-0.119-0.307-0.176-0.482-0.163c-0.178-0.01-0.354,0.053-0.486,0.174c-0.123,0.124-0.187,0.293-0.178,0.468
				c-0.013,0.209,0.069,0.415,0.223,0.559c0.186,0.135,0.414,0.2,0.643,0.185h0.052v0.045c0.011,0.1-0.01,0.201-0.059,0.288
				l0.195,0.299c0.034-0.019,0.064-0.042,0.09-0.069c0.117-0.163,0.174-0.362,0.16-0.563h2.585v-1.386H3891.656L3891.656,803.982z
				 M3889.071,805.028h-0.121c-0.23-0.003-0.412-0.193-0.408-0.422c0.001-0.079,0.025-0.155,0.069-0.222
				c0.05-0.058,0.125-0.088,0.201-0.083c0.053-0.004,0.106,0.007,0.154,0.031c0.041,0.026,0.069,0.068,0.08,0.115
				c0.02,0.092,0.028,0.187,0.025,0.279L3889.071,805.028L3889.071,805.028z"/>
			<rect id="Rectangle_2090" x="3891.656" y="803.419" fill="#0047BA" width="0.389" height="0.375"/>
			<path id="Path_1164" fill="#0047BA" d="M3893.877,805.028v-0.201c0.01-0.134-0.025-0.268-0.099-0.379
				c-0.079-0.086-0.192-0.131-0.307-0.123c-0.1,0.004-0.198,0.02-0.293,0.051l-0.091-0.332c0.135-0.042,0.275-0.063,0.416-0.062
				c0.21-0.014,0.415,0.062,0.565,0.208c0.141,0.167,0.211,0.383,0.197,0.6v0.579h-1.931v-0.342H3893.877L3893.877,805.028z"/>
			<path id="Path_1165" fill="#0047BA" d="M3895.061,803.287v0.131h-0.512v-0.131h0.063v-0.083
				c-0.003-0.058,0.018-0.115,0.058-0.155c0.093-0.068,0.219-0.072,0.317-0.011c0.038,0.04,0.061,0.091,0.063,0.147l-0.128,0.015
				c-0.001-0.022-0.009-0.046-0.022-0.064c-0.016-0.013-0.037-0.021-0.058-0.019c-0.061,0-0.089,0.033-0.089,0.097v0.072
				L3895.061,803.287z"/>
			<rect id="Rectangle_2091" x="3894.597" y="803.567" fill="#0047BA" width="0.388" height="1.802"/>
			<path id="Path_1168" fill="#FFFFFF" d="M3937.237,809.431v2.544h-1.07v-2.197c0-0.578-0.295-0.894-0.781-0.894
				c-0.451-0.018-0.83,0.336-0.848,0.787c-0.004,0.039,0,0.077,0.004,0.115v2.189h-1.076v-2.197c0-0.578-0.287-0.894-0.779-0.894
				c-0.453-0.018-0.832,0.336-0.85,0.787c-0.002,0.039,0,0.077,0.004,0.115v2.189h-1.074v-3.995h1.047v0.471
				c0.264-0.385,0.709-0.603,1.174-0.578c0.527-0.019,1.027,0.241,1.318,0.685c0.295-0.457,0.814-0.718,1.355-0.685
				c0.82-0.05,1.523,0.573,1.574,1.393c0.004,0.055,0.004,0.11,0,0.166"/>
			<path id="Path_1169" fill="#FFFFFF" d="M3939.049,809.975c0.037,0.569,0.529,1,1.1,0.962c0.568-0.038,0.998-0.529,0.961-1.099
				c-0.035-0.542-0.484-0.964-1.029-0.964c-0.568-0.002-1.031,0.455-1.033,1.023
				C3939.045,809.923,3939.047,809.948,3939.049,809.975 M3942.129,811.975h-1.051v-0.441c-0.291,0.358-0.734,0.561-1.195,0.544
				c-1.104,0-1.936-0.903-1.936-2.103s0.832-2.101,1.936-2.101c0.463-0.018,0.906,0.185,1.195,0.547v-0.441h1.051V811.975z"/>
			<path id="Path_1170" fill="#FFFFFF" d="M3946.539,808.767l-1.969,2.247h2.016v0.96h-3.496v-0.774l2.014-2.264h-1.943v-0.954
				h3.379V808.767z"/>
			<path id="Path_1171" fill="#FFFFFF" d="M3948.199,809.975c0.037,0.569,0.529,1,1.096,0.962c0.57-0.038,1-0.529,0.963-1.099
				c-0.035-0.542-0.486-0.964-1.031-0.964c-0.564-0.002-1.027,0.455-1.031,1.023
				C3948.196,809.923,3948.198,809.948,3948.199,809.975 M3951.276,811.975h-1.051v-0.441c-0.289,0.358-0.73,0.561-1.195,0.544
				c-1.1,0-1.934-0.903-1.934-2.103s0.834-2.101,1.934-2.101c0.465-0.018,0.906,0.185,1.195,0.547v-0.441h1.051V811.975z"/>
			<path id="Path_1172" fill="#FFFFFF" d="M3953.518,813.639h-1.178l1.396-2.515l-1.725-3.146h1.223l1.096,2.054l1.064-2.054h1.178
				L3953.518,813.639z"/>
			<path id="Path_1173" fill="#FFFFFF" d="M3957.86,809.975c0.037,0.569,0.529,1,1.098,0.962c0.568-0.038,1.002-0.529,0.965-1.099
				c-0.039-0.542-0.488-0.964-1.031-0.964c-0.568-0.002-1.031,0.455-1.033,1.023C3957.858,809.923,3957.858,809.948,3957.86,809.975
				 M3960.938,811.975h-1.051v-0.441c-0.291,0.36-0.734,0.561-1.197,0.544c-1.1,0-1.934-0.903-1.934-2.103s0.834-2.102,1.934-2.102
				c0.463-0.016,0.906,0.186,1.197,0.548v-0.441h1.051V811.975z"/>
			<path id="Path_1174" fill="#FFFFFF" d="M3938.448,799.667c0.008,0.446-0.166,0.877-0.482,1.19
				c-0.307,0.318-0.732,0.494-1.174,0.485h-3.941v-9.632h-2.082v11.714h6.023c2.07-0.011,3.746-1.687,3.756-3.757v-4.444h-2.1
				V799.667L3938.448,799.667z"/>
			<rect id="Rectangle_2092" x="3942.321" y="791.709" fill="#FFFFFF" width="2.082" height="11.714"/>
			<path id="Path_1175" fill="#FFFFFF" d="M3935.809,804.352v0.762h-0.838v0.704h0.838v0.762h0.781v-0.762h0.838v-0.704h-0.838
				v-0.762H3935.809z"/>
			<path id="Path_1176" fill="#FFFFFF" d="M3938.877,804.352v0.762h-0.838v0.704h0.838v0.762h0.781v-0.762h0.836v-0.704h-0.836
				v-0.762H3938.877z"/>
			<path id="Path_1177" fill="#FFFFFF" d="M3948.744,793.892c0.301-0.002,0.59-0.127,0.801-0.347
				c0.211-0.206,0.324-0.491,0.316-0.786c0.01-0.299-0.104-0.589-0.316-0.801c-0.211-0.216-0.5-0.336-0.801-0.333
				c-0.303-0.002-0.592,0.117-0.803,0.333l-0.008,0.009c-0.205,0.214-0.32,0.497-0.322,0.792
				C3947.625,793.379,3948.125,793.877,3948.744,793.892"/>
			<path id="Path_1178" fill="#FFFFFF" d="M3958.875,798.617v2.688h-2.744c-0.721,0.011-1.414-0.271-1.922-0.784
				c-1.029-1.007-1.047-2.659-0.041-3.689c0.02-0.021,0.039-0.041,0.063-0.06c0.506-0.509,1.201-0.786,1.92-0.765
				c0.715-0.021,1.406,0.258,1.906,0.769C3958.574,797.248,3958.873,797.917,3958.875,798.617 M3959.508,795.272
				c-1.65-1.631-4.24-1.828-6.117-0.462c-1.539,1.105-2.156,2.659-1.895,4.749l0.004,0.025c0.117,0.63,0.363,1.229,0.721,1.761
				h-2.414c0.002-0.05,0.002-0.103,0.002-0.158v-5.905h-2.082v5.905c0.012,0.905-0.357,1.773-1.014,2.395
				c-0.449,0.482-1.045,0.804-1.693,0.918l-0.271,0.047v2.09l0.367-0.043c1.174-0.144,2.262-0.687,3.082-1.538
				c0.473-0.47,0.861-1.021,1.145-1.626h11.598V798.6C3960.948,797.339,3960.428,796.132,3959.508,795.272"/>
		</g>
	</g>
</g>
</svg>
