<?xml version="1.0" encoding="utf-8"?>
<!-- Generator: Adobe Illustrator 16.0.0, SVG Export Plug-In . SVG Version: 6.00 Build 0)  -->
<!DOCTYPE svg PUBLIC "-//W3C//DTD SVG 1.1//EN" "http://www.w3.org/Graphics/SVG/1.1/DTD/svg11.dtd">
<svg version="1.1" id="Layer_1" xmlns="http://www.w3.org/2000/svg" xmlns:xlink="http://www.w3.org/1999/xlink" x="0px" y="0px"
	 width="137.774px" height="38.34px" viewBox="0 0 137.774 38.34" enable-background="new 0 0 137.774 38.34" xml:space="preserve">
<g>
	<g>
		<g>
			<defs>
				<path id="SVGID_1_" d="M113.867,3.433c-0.258,0.258-0.505,0.529-0.733,0.814c-2.973,3.67-3.014,8.773-0.432,12.463
					c0,0.003-0.001,0.003-0.002,0.005c-0.742-0.215-1.442-0.579-2.061-1.081c-1.221-0.989-1.984-2.395-2.149-3.96
					c-0.023-0.205-0.033-0.414-0.033-0.621c0-2.395,1.5-4.591,3.73-5.469l0.016-0.006l-1.638-4.162l-0.018,0.008
					c-3.926,1.542-6.563,5.411-6.563,9.624c0,0.363,0.02,0.73,0.058,1.096c0.493,4.696,4.074,8.336,8.509,9.118
					c0,0.001,0,0.001,0,0.003c-0.678,0.372-1.428,0.609-2.221,0.693c-1.563,0.163-3.097-0.291-4.319-1.279
					c-0.16-0.131-0.315-0.271-0.462-0.416c-1.694-1.693-2.188-4.307-1.23-6.505l0.007-0.017l-4.102-1.785l-0.007,0.019
					c-1.685,3.865-0.815,8.467,2.164,11.447c0.257,0.256,0.532,0.504,0.815,0.732c3.67,2.974,8.774,3.014,12.463,0.434
					c0.001,0,0.003,0,0.003,0c-0.215,0.742-0.577,1.441-1.078,2.061c-0.991,1.222-2.396,1.986-3.959,2.149
					c-0.207,0.021-0.418,0.032-0.623,0.032c-2.395,0-4.592-1.497-5.469-3.729l-0.006-0.017l-4.162,1.637l0.006,0.019
					c1.544,3.926,5.412,6.564,9.627,6.563c0.362,0.001,0.73-0.019,1.095-0.057c4.696-0.495,8.334-4.072,9.116-8.508
					c0-0.002,0.002-0.002,0.004-0.002c0.373,0.677,0.61,1.429,0.693,2.22c0.164,1.564-0.292,3.099-1.279,4.319
					c-0.132,0.163-0.271,0.318-0.418,0.463c-1.692,1.694-4.306,2.189-6.501,1.231l-0.018-0.008l-1.783,4.102l0.017,0.009
					c3.866,1.685,8.465,0.813,11.446-2.167c0.256-0.257,0.503-0.531,0.732-0.814c2.973-3.672,3.015-8.773,0.432-12.462l0.003-0.006
					c0.74,0.217,1.439,0.578,2.059,1.08c1.222,0.99,1.986,2.397,2.15,3.959c0.021,0.207,0.033,0.415,0.033,0.625
					c0,2.393-1.499,4.59-3.73,5.466l-0.017,0.008l1.639,4.161l0.017-0.007c3.927-1.543,6.564-5.41,6.564-9.625
					c0-0.364-0.02-0.732-0.059-1.097c-0.494-4.696-4.071-8.333-8.507-9.115c0-0.003,0-0.004-0.002-0.005
					c0.678-0.372,1.429-0.61,2.222-0.693c1.563-0.163,3.098,0.29,4.319,1.281c0.162,0.129,0.317,0.271,0.463,0.415
					c1.692,1.692,2.186,4.307,1.229,6.505l-0.008,0.016l4.103,1.784l0.005-0.017c0.568-1.298,0.846-2.681,0.852-4.057v-0.098
					c-0.013-2.686-1.059-5.339-3.014-7.295c-0.259-0.256-0.531-0.501-0.816-0.732c-3.671-2.972-8.772-3.014-12.463-0.43
					c-0.002-0.001-0.003-0.002-0.003-0.002c0.215-0.743,0.578-1.441,1.078-2.062c0.989-1.222,2.396-1.985,3.961-2.15
					c0.206-0.021,0.416-0.031,0.62-0.031c2.396,0,4.594,1.499,5.469,3.73l0.009,0.015l4.16-1.639l-0.006-0.016
					c-1.544-3.928-5.411-6.565-9.626-6.565c-0.362,0-0.73,0.02-1.095,0.059c-4.698,0.494-8.335,4.072-9.115,8.508
					c0,0-0.004,0.003-0.006,0.003c-0.371-0.68-0.608-1.43-0.692-2.223c-0.164-1.563,0.289-3.097,1.279-4.32
					c0.131-0.161,0.271-0.315,0.417-0.461c1.692-1.694,4.306-2.188,6.503-1.23l0.017,0.007l1.784-4.101l-0.016-0.008
					c-1.314-0.573-2.713-0.85-4.103-0.85C118.507,0.418,115.835,1.465,113.867,3.433"/>
			</defs>
			<clipPath id="SVGID_2_">
				<use xlink:href="#SVGID_1_"  overflow="visible"/>
			</clipPath>
		</g>
	</g>
	<g>
		<g>
			<defs>
				<path id="SVGID_3_" d="M113.867,3.433c-0.258,0.258-0.505,0.529-0.733,0.814c-2.973,3.67-3.014,8.773-0.432,12.463
					c0,0.003-0.001,0.003-0.002,0.005c-0.742-0.215-1.442-0.579-2.061-1.081c-1.221-0.989-1.984-2.395-2.149-3.96
					c-0.023-0.205-0.033-0.414-0.033-0.621c0-2.395,1.5-4.591,3.73-5.469l0.016-0.006l-1.638-4.162l-0.018,0.008
					c-3.926,1.542-6.563,5.411-6.563,9.624c0,0.363,0.02,0.73,0.058,1.096c0.493,4.696,4.074,8.336,8.509,9.118
					c0,0.001,0,0.001,0,0.003c-0.678,0.372-1.428,0.609-2.221,0.693c-1.563,0.163-3.097-0.291-4.319-1.279
					c-0.16-0.131-0.315-0.271-0.462-0.416c-1.694-1.693-2.188-4.307-1.23-6.505l0.007-0.017l-4.102-1.785l-0.007,0.019
					c-1.685,3.865-0.815,8.467,2.164,11.447c0.257,0.256,0.532,0.504,0.815,0.732c3.67,2.974,8.774,3.014,12.463,0.434
					c0.001,0,0.003,0,0.003,0c-0.215,0.742-0.577,1.441-1.078,2.061c-0.991,1.222-2.396,1.986-3.959,2.149
					c-0.207,0.021-0.418,0.032-0.623,0.032c-2.395,0-4.592-1.497-5.469-3.729l-0.006-0.017l-4.162,1.637l0.006,0.019
					c1.544,3.926,5.412,6.564,9.627,6.563c0.362,0.001,0.73-0.019,1.095-0.057c4.696-0.495,8.334-4.072,9.116-8.508
					c0-0.002,0.002-0.002,0.004-0.002c0.373,0.677,0.61,1.429,0.693,2.22c0.164,1.564-0.292,3.099-1.279,4.319
					c-0.132,0.163-0.271,0.318-0.418,0.463c-1.692,1.694-4.306,2.189-6.501,1.231l-0.018-0.008l-1.783,4.102l0.017,0.009
					c3.866,1.685,8.465,0.813,11.446-2.167c0.256-0.257,0.503-0.531,0.732-0.814c2.973-3.672,3.015-8.773,0.432-12.462l0.003-0.006
					c0.74,0.217,1.439,0.578,2.059,1.08c1.222,0.99,1.986,2.397,2.15,3.959c0.021,0.207,0.033,0.415,0.033,0.625
					c0,2.393-1.499,4.59-3.73,5.466l-0.017,0.008l1.639,4.161l0.017-0.007c3.927-1.543,6.564-5.41,6.564-9.625
					c0-0.364-0.02-0.732-0.059-1.097c-0.494-4.696-4.071-8.333-8.507-9.115c0-0.003,0-0.004-0.002-0.005
					c0.678-0.372,1.429-0.61,2.222-0.693c1.563-0.163,3.098,0.29,4.319,1.281c0.162,0.129,0.317,0.271,0.463,0.415
					c1.692,1.692,2.186,4.307,1.229,6.505l-0.008,0.016l4.103,1.784l0.005-0.017c0.568-1.298,0.846-2.681,0.852-4.057v-0.098
					c-0.013-2.686-1.059-5.339-3.014-7.295c-0.259-0.256-0.531-0.501-0.816-0.732c-3.671-2.972-8.772-3.014-12.463-0.43
					c-0.002-0.001-0.003-0.002-0.003-0.002c0.215-0.743,0.578-1.441,1.078-2.062c0.989-1.222,2.396-1.985,3.961-2.15
					c0.206-0.021,0.416-0.031,0.62-0.031c2.396,0,4.594,1.499,5.469,3.73l0.009,0.015l4.16-1.639l-0.006-0.016
					c-1.544-3.928-5.411-6.565-9.626-6.565c-0.362,0-0.73,0.02-1.095,0.059c-4.698,0.494-8.335,4.072-9.115,8.508
					c0,0-0.004,0.003-0.006,0.003c-0.371-0.68-0.608-1.43-0.692-2.223c-0.164-1.563,0.289-3.097,1.279-4.32
					c0.131-0.161,0.271-0.315,0.417-0.461c1.692-1.694,4.306-2.188,6.503-1.23l0.017,0.007l1.784-4.101l-0.016-0.008
					c-1.314-0.573-2.713-0.85-4.103-0.85C118.507,0.418,115.835,1.465,113.867,3.433"/>
			</defs>
			<use xlink:href="#SVGID_3_"  overflow="visible" fill="#00AED6"/>
			<clipPath id="SVGID_4_">
				<use xlink:href="#SVGID_3_"  overflow="visible"/>
			</clipPath>
			<rect x="98.532" y="0.418" clip-path="url(#SVGID_4_)" fill="#00AED6" width="38.337" height="38.34"/>
		</g>
		<path fill="#00AED6" d="M90.064,13.3c-2.891,0-5.426,2.527-5.426,5.407v9.811h2.591v-9.811c0-1.63,1.192-2.813,2.835-2.813h2.278
			V13.3H90.064z"/>
		<path fill="#00AED6" d="M64.248,9.736v4.391C63.389,13.582,62.4,13.3,61.42,13.3h-3.255c-2.89,0-5.426,2.515-5.426,5.395v4.4
			c0,2.894,2.536,5.415,5.426,5.423h2.196c1.456-0.008,2.804-0.494,3.887-1.308v1.308h2.595V9.736H64.248z M64.248,22.012
			c0,2.132-1.735,3.866-3.865,3.896h-2.218c-1.669,0-2.833-1.482-2.833-2.813v-4.4c0-1.63,1.192-2.807,2.833-2.807h3.255
			c1.578,0,2.828,1.063,2.828,2.429V22.012z"/>
		<path fill="#00AED6" d="M77.275,13.301h-2.475c-2.394,0-4.539,1.74-5.21,3.951h2.828c0.521-0.78,1.421-1.358,2.384-1.358h2.474
			c1.646,0,2.839,1.189,2.839,2.819v0.279h-5.997c-3.044,0-5.429,2.038-5.429,4.64c0,2.652,2.486,4.886,5.429,4.886h2.087
			c1.477,0,2.838-0.497,3.93-1.329v1.329h2.59v-9.805C82.705,15.833,80.17,13.301,77.275,13.301 M74.118,25.907
			c-1.671,0-2.837-1.2-2.837-2.275c0-1.134,1.246-2.026,2.837-2.026h5.997v0.54c-0.066,2.074-1.798,3.744-3.886,3.762H74.118z"/>
		<path fill="#00AED6" d="M29.15,13.301h-2.475c-2.396,0-4.539,1.74-5.209,3.951h2.828c0.519-0.78,1.421-1.358,2.382-1.358h2.476
			c1.645,0,2.839,1.189,2.839,2.819v0.279h-5.997c-3.045,0-5.429,2.038-5.429,4.64c0,2.652,2.485,4.886,5.429,4.886h2.087
			c1.476,0,2.837-0.497,3.928-1.329v1.329h2.59v-9.805C34.58,15.833,32.045,13.301,29.15,13.301 M25.994,25.907
			c-1.672,0-2.837-1.2-2.837-2.275c0-1.134,1.245-2.026,2.837-2.026h5.997v0.54c-0.065,2.074-1.798,3.744-3.886,3.762H25.994z"/>
		<path fill="#00AED6" d="M45.319,18.991l-4.343,0.001c-0.953,0.019-1.759-0.737-1.759-1.569c0-0.833,0.806-1.537,1.759-1.531
			l4.444,0.002c0.961,0,1.863,0.578,2.384,1.356h2.828c-0.671-2.209-2.816-3.95-5.209-3.95h-4.447
			c-2.394,0.004-4.343,1.85-4.343,4.123c0,2.271,1.949,4.171,4.343,4.183h4.343c1.591,0,2.837,0.893,2.837,2.026
			c0,1.075-1.165,2.275-2.837,2.275h-3.474c-0.962,0.005-1.863-0.571-2.384-1.352h-2.828c0.671,2.21,2.815,3.954,5.208,3.962h3.478
			c2.942,0,5.429-2.233,5.429-4.886C50.748,21.03,48.363,18.991,45.319,18.991"/>
		<polygon fill="#00AED6" points="15.363,9.787 9.501,24.832 3.639,9.787 0.53,9.787 0.53,28.518 3.12,28.518 3.12,15.811 
			7.862,28.518 11.139,28.518 15.883,15.811 15.883,28.518 18.473,28.518 18.473,9.787 		"/>
	</g>
	<g>
		<g>
			<defs>
				<path id="SVGID_5_" d="M113.867,3.433c-0.258,0.258-0.505,0.529-0.733,0.814c-2.973,3.67-3.014,8.773-0.432,12.463
					c0,0.003-0.001,0.003-0.002,0.005c-0.742-0.215-1.442-0.579-2.061-1.081c-1.221-0.989-1.984-2.395-2.149-3.96
					c-0.023-0.205-0.033-0.414-0.033-0.621c0-2.395,1.5-4.591,3.73-5.469l0.016-0.006l-1.638-4.162l-0.018,0.008
					c-3.926,1.542-6.563,5.411-6.563,9.624c0,0.363,0.02,0.73,0.058,1.096c0.493,4.696,4.074,8.336,8.509,9.118
					c0,0.001,0,0.001,0,0.003c-0.678,0.372-1.428,0.609-2.221,0.693c-1.563,0.163-3.097-0.291-4.319-1.279
					c-0.16-0.131-0.315-0.271-0.462-0.416c-1.694-1.693-2.188-4.307-1.23-6.505l0.007-0.017l-4.102-1.785l-0.007,0.019
					c-1.685,3.865-0.815,8.467,2.164,11.447c0.257,0.256,0.532,0.504,0.815,0.732c3.67,2.974,8.774,3.014,12.463,0.434
					c0.001,0,0.003,0,0.003,0c-0.215,0.742-0.577,1.441-1.078,2.061c-0.991,1.222-2.396,1.986-3.959,2.149
					c-0.207,0.021-0.418,0.032-0.623,0.032c-2.395,0-4.592-1.497-5.469-3.729l-0.006-0.017l-4.162,1.637l0.006,0.019
					c1.544,3.926,5.412,6.564,9.627,6.563c0.362,0.001,0.73-0.019,1.095-0.057c4.696-0.495,8.334-4.072,9.116-8.508
					c0-0.002,0.002-0.002,0.004-0.002c0.373,0.677,0.61,1.429,0.693,2.22c0.164,1.564-0.292,3.099-1.279,4.319
					c-0.132,0.163-0.271,0.318-0.418,0.463c-1.692,1.694-4.306,2.189-6.501,1.231l-0.018-0.008l-1.783,4.102l0.017,0.009
					c3.866,1.685,8.465,0.813,11.446-2.167c0.256-0.257,0.503-0.531,0.732-0.814c2.973-3.672,3.015-8.773,0.432-12.462l0.003-0.006
					c0.74,0.217,1.439,0.578,2.059,1.08c1.222,0.99,1.986,2.397,2.15,3.959c0.021,0.207,0.033,0.415,0.033,0.625
					c0,2.393-1.499,4.59-3.73,5.466l-0.017,0.008l1.639,4.161l0.017-0.007c3.927-1.543,6.564-5.41,6.564-9.625
					c0-0.364-0.02-0.732-0.059-1.097c-0.494-4.696-4.071-8.333-8.507-9.115c0-0.003,0-0.004-0.002-0.005
					c0.678-0.372,1.429-0.61,2.222-0.693c1.563-0.163,3.098,0.29,4.319,1.281c0.162,0.129,0.317,0.271,0.463,0.415
					c1.692,1.692,2.186,4.307,1.229,6.505l-0.008,0.016l4.103,1.784l0.005-0.017c0.568-1.298,0.846-2.681,0.852-4.057v-0.098
					c-0.013-2.686-1.059-5.339-3.014-7.295c-0.259-0.256-0.531-0.501-0.816-0.732c-3.671-2.972-8.772-3.014-12.463-0.43
					c-0.002-0.001-0.003-0.002-0.003-0.002c0.215-0.743,0.578-1.441,1.078-2.062c0.989-1.222,2.396-1.985,3.961-2.15
					c0.206-0.021,0.416-0.031,0.62-0.031c2.396,0,4.594,1.499,5.469,3.73l0.009,0.015l4.16-1.639l-0.006-0.016
					c-1.544-3.928-5.411-6.565-9.626-6.565c-0.362,0-0.73,0.02-1.095,0.059c-4.698,0.494-8.335,4.072-9.115,8.508
					c0,0-0.004,0.003-0.006,0.003c-0.371-0.68-0.608-1.43-0.692-2.223c-0.164-1.563,0.289-3.097,1.279-4.32
					c0.131-0.161,0.271-0.315,0.417-0.461c1.692-1.694,4.306-2.188,6.503-1.23l0.017,0.007l1.784-4.101l-0.016-0.008
					c-1.314-0.573-2.713-0.85-4.103-0.85C118.507,0.418,115.835,1.465,113.867,3.433"/>
			</defs>
			<clipPath id="SVGID_6_">
				<use xlink:href="#SVGID_5_"  overflow="visible"/>
			</clipPath>
		</g>
	</g>
</g>
</svg>
